<svg width="1987" height="2230" viewBox="0 0 1987 2230" fill="none" xmlns="http://www.w3.org/2000/svg">
<rect x="345" y="115" width="225" height="1480" fill="url(#paint0_linear_8_21)"/>
<path d="M1036.46 917.849L1036.84 918.27L1037.21 917.831L1177.22 750.396H1516L1414.5 1021.71H950.376V1711H628V982.719L628.359 982.348L868.162 734.062L1036.46 917.849ZM1695.5 273.76H1549.77L1554.5 236.062L1554.58 235.409L1553.93 235.506L1306.82 272.122L1305.75 272.28L1306.56 272.992L1307.43 273.76H950.376V632.863L868.532 548.262L868.18 547.897L867.82 548.255L628 786.733V0H1798.5L1695.5 273.76Z" fill="url(#paint1_linear_8_21)"/>
<path d="M864 587L628 829V945L864 696L1034.5 880L1440 400.5L1482.5 441L1516 276L1340 305.5L1388 351L1034.5 766.5L864 587Z" fill="#178528" stroke="#309D2A"/>
<path d="M19.25 1992H145V2023.75H58.75V2068H137.75V2099.75H58.75V2167H19.25V1992ZM167.932 1992H207.432V2167H167.932V1992ZM246.301 1992H282.301L377.551 2120.5L367.301 2124V1992H404.551V2167H368.801L273.551 2038.75L284.051 2035.25V2167H246.301V1992ZM499.572 1992H540.072L614.572 2167H572.572L518.572 2031.5L464.322 2167H423.322L499.572 1992ZM465.822 2101.25H569.072V2132H465.822V2101.25ZM633.02 1992H669.02L764.27 2120.5L754.02 2124V1992H791.27V2167H755.52L660.27 2038.75L670.77 2035.25V2167H633.02V1992ZM956.791 2045.5C950.958 2038.33 943.958 2032.75 935.791 2028.75C927.624 2024.58 919.458 2022.5 911.291 2022.5C903.791 2022.5 896.791 2023.92 890.291 2026.75C883.958 2029.58 878.291 2033.58 873.291 2038.75C868.458 2043.75 864.708 2049.67 862.041 2056.5C859.374 2063.33 858.041 2070.75 858.041 2078.75C858.041 2086.58 859.374 2093.92 862.041 2100.75C864.708 2107.58 868.458 2113.58 873.291 2118.75C878.291 2123.75 883.958 2127.75 890.291 2130.75C896.791 2133.58 903.791 2135 911.291 2135C919.291 2135 927.291 2133.17 935.291 2129.5C943.291 2125.67 950.458 2120.58 956.791 2114.25L980.041 2138.5C973.874 2144.83 966.874 2150.33 959.041 2155C951.374 2159.67 943.291 2163.33 934.791 2166C926.291 2168.5 917.791 2169.75 909.291 2169.75C896.124 2169.75 883.958 2167.5 872.791 2163C861.791 2158.33 852.124 2151.92 843.791 2143.75C835.624 2135.42 829.208 2125.75 824.541 2114.75C819.874 2103.75 817.541 2091.83 817.541 2079C817.541 2066.33 819.874 2054.58 824.541 2043.75C829.208 2032.92 835.791 2023.42 844.291 2015.25C852.791 2007.08 862.624 2000.75 873.791 1996.25C885.124 1991.75 897.458 1989.5 910.791 1989.5C919.291 1989.5 927.708 1990.67 936.041 1993C944.541 1995.33 952.458 1998.67 959.791 2003C967.291 2007.17 973.958 2012.33 979.791 2018.5L956.791 2045.5ZM1003.63 1992H1136.88V2023.75H1043.13V2063.25H1127.38V2095H1043.13V2135.25H1139.63V2167H1003.63V1992ZM1238 1992H1363.75V2023.75H1277.5V2068H1356.5V2099.75H1277.5V2167H1238V1992ZM1468.18 1989.5C1481.51 1989.5 1493.85 1991.75 1505.18 1996.25C1516.68 2000.75 1526.68 2007.08 1535.18 2015.25C1543.68 2023.42 1550.26 2032.92 1554.93 2043.75C1559.76 2054.58 1562.18 2066.42 1562.18 2079.25C1562.18 2091.92 1559.76 2103.75 1554.93 2114.75C1550.26 2125.75 1543.68 2135.42 1535.18 2143.75C1526.68 2151.92 1516.68 2158.33 1505.18 2163C1493.85 2167.5 1481.51 2169.75 1468.18 2169.75C1454.85 2169.75 1442.43 2167.5 1430.93 2163C1419.6 2158.33 1409.68 2151.92 1401.18 2143.75C1392.68 2135.42 1386.01 2125.75 1381.18 2114.75C1376.51 2103.75 1374.18 2091.92 1374.18 2079.25C1374.18 2066.42 1376.51 2054.58 1381.18 2043.75C1386.01 2032.75 1392.68 2023.25 1401.18 2015.25C1409.68 2007.08 1419.6 2000.75 1430.93 1996.25C1442.43 1991.75 1454.85 1989.5 1468.18 1989.5ZM1468.68 2022.75C1461.35 2022.75 1454.35 2024.17 1447.68 2027C1441.18 2029.83 1435.43 2033.83 1430.43 2039C1425.6 2044.17 1421.76 2050.17 1418.93 2057C1416.1 2063.83 1414.68 2071.25 1414.68 2079.25C1414.68 2087.25 1416.1 2094.75 1418.93 2101.75C1421.76 2108.58 1425.68 2114.67 1430.68 2120C1435.68 2125.17 1441.43 2129.25 1447.93 2132.25C1454.43 2135.08 1461.35 2136.5 1468.68 2136.5C1476.01 2136.5 1482.85 2135.08 1489.18 2132.25C1495.68 2129.25 1501.35 2125.17 1506.18 2120C1511.01 2114.67 1514.76 2108.58 1517.43 2101.75C1520.26 2094.75 1521.68 2087.25 1521.68 2079.25C1521.68 2071.25 1520.26 2063.83 1517.43 2057C1514.76 2050.17 1511.01 2044.17 1506.18 2039C1501.35 2033.83 1495.68 2029.83 1489.18 2027C1482.85 2024.17 1476.01 2022.75 1468.68 2022.75ZM1588.1 1992H1627.6V2133.75H1702.35V2167H1588.1V1992ZM1726.04 1992H1765.54V2167H1726.04V1992ZM1885.91 1989.5C1899.24 1989.5 1911.57 1991.75 1922.91 1996.25C1934.41 2000.75 1944.41 2007.08 1952.91 2015.25C1961.41 2023.42 1967.99 2032.92 1972.66 2043.75C1977.49 2054.58 1979.91 2066.42 1979.91 2079.25C1979.91 2091.92 1977.49 2103.75 1972.66 2114.75C1967.99 2125.75 1961.41 2135.42 1952.91 2143.75C1944.41 2151.92 1934.41 2158.33 1922.91 2163C1911.57 2167.5 1899.24 2169.75 1885.91 2169.75C1872.57 2169.75 1860.16 2167.5 1848.66 2163C1837.32 2158.33 1827.41 2151.92 1818.91 2143.75C1810.41 2135.42 1803.74 2125.75 1798.91 2114.75C1794.24 2103.75 1791.91 2091.92 1791.91 2079.25C1791.91 2066.42 1794.24 2054.58 1798.91 2043.75C1803.74 2032.75 1810.41 2023.25 1818.91 2015.25C1827.41 2007.08 1837.32 2000.75 1848.66 1996.25C1860.16 1991.75 1872.57 1989.5 1885.91 1989.5ZM1886.41 2022.75C1879.07 2022.75 1872.07 2024.17 1865.41 2027C1858.91 2029.83 1853.16 2033.83 1848.16 2039C1843.32 2044.17 1839.49 2050.17 1836.66 2057C1833.82 2063.83 1832.41 2071.25 1832.41 2079.25C1832.41 2087.25 1833.82 2094.75 1836.66 2101.75C1839.49 2108.58 1843.41 2114.67 1848.41 2120C1853.41 2125.17 1859.16 2129.25 1865.66 2132.25C1872.16 2135.08 1879.07 2136.5 1886.41 2136.5C1893.74 2136.5 1900.57 2135.08 1906.91 2132.25C1913.41 2129.25 1919.07 2125.17 1923.91 2120C1928.74 2114.67 1932.49 2108.58 1935.16 2101.75C1937.99 2094.75 1939.41 2087.25 1939.41 2079.25C1939.41 2071.25 1937.99 2063.83 1935.16 2057C1932.49 2050.17 1928.74 2044.17 1923.91 2039C1919.07 2033.83 1913.41 2029.83 1906.91 2027C1900.57 2024.17 1893.74 2022.75 1886.41 2022.75Z" fill="url(#paint2_linear_8_21)"/>
<defs>
<linearGradient id="paint0_linear_8_21" x1="457.5" y1="115" x2="457.5" y2="1595" gradientUnits="userSpaceOnUse">
<stop stop-color="#1E293B"/>
<stop offset="0.427885" stop-color="#01358A"/>
</linearGradient>
<linearGradient id="paint1_linear_8_21" x1="1213.25" y1="0" x2="1213.25" y2="1711" gradientUnits="userSpaceOnUse">
<stop stop-color="#1E293B"/>
<stop offset="0.336538" stop-color="#01358A"/>
</linearGradient>
<linearGradient id="paint2_linear_8_21" x1="925.155" y1="1657.08" x2="929.321" y2="2167.5" gradientUnits="userSpaceOnUse">
<stop offset="0.5625" stop-color="#1E293B"/>
<stop offset="1" stop-color="#01358A"/>
</linearGradient>
</defs>
</svg>
